<svg width="20" height="20" viewBox="0 0 20 20" fill="none" xmlns="http://www.w3.org/2000/svg">
    <path d="M16.2747 5.34176C16.5156 5.56945 16.6561 5.88345 16.6655 6.21474C16.6749 6.54604 16.5523 6.86749 16.3247 7.10843L9.24141 14.6084C9.12661 14.7298 8.98865 14.8269 8.8357 14.894C8.68274 14.9611 8.51788 14.9969 8.35086 14.9992C8.18383 15.0015 8.01804 14.9704 7.86327 14.9075C7.7085 14.8447 7.56789 14.7515 7.44974 14.6334L3.69974 10.8834C3.47894 10.6465 3.35874 10.3331 3.36445 10.0092C3.37017 9.68539 3.50135 9.37641 3.73037 9.14739C3.9594 8.91837 4.26837 8.78719 4.59221 8.78147C4.91604 8.77576 5.22945 8.89596 5.46641 9.11676L8.30808 11.9568L14.5081 5.39176C14.7358 5.15092 15.0498 5.01037 15.3811 5.00099C15.7123 4.99161 16.0338 5.11419 16.2747 5.34176Z" fill="#4700C2"/>
</svg>
