<svg width="16" height="16" viewBox="0 0 16 16" fill="none" xmlns="http://www.w3.org/2000/svg">
    <path fill-rule="evenodd" clip-rule="evenodd" d="M7.9996 10.122L13.3026 15.425C13.584 15.7064 13.9657 15.8645 14.3636 15.8645C14.7616 15.8645 15.1432 15.7064 15.4246 15.425C15.706 15.1436 15.8641 14.7619 15.8641 14.364C15.8641 13.966 15.706 13.5844 15.4246 13.303L10.1196 7.99999L15.4236 2.69699C15.5629 2.55766 15.6733 2.39226 15.7487 2.21024C15.824 2.02821 15.8628 1.83313 15.8627 1.63613C15.8627 1.43914 15.8238 1.24407 15.7484 1.06209C15.673 0.880101 15.5624 0.714755 15.4231 0.575488C15.2838 0.436221 15.1184 0.325762 14.9364 0.250416C14.7543 0.175071 14.5592 0.136315 14.3623 0.136361C14.1653 0.136408 13.9702 0.175255 13.7882 0.250687C13.6062 0.326118 13.4409 0.436656 13.3016 0.575988L7.9996 5.87899L2.6966 0.575988C2.5583 0.432659 2.39284 0.318309 2.20987 0.239611C2.0269 0.160912 1.83009 0.119441 1.63092 0.117617C1.43176 0.115793 1.23422 0.153652 1.04984 0.228987C0.865462 0.304321 0.697932 0.415622 0.557027 0.556394C0.416123 0.697166 0.304664 0.864591 0.229156 1.0489C0.153648 1.23321 0.115602 1.43071 0.117238 1.62988C0.118874 1.82905 0.16016 2.02589 0.238686 2.20894C0.317212 2.39198 0.431406 2.55755 0.574604 2.69599L5.8796 7.99999L0.575604 13.304C0.432406 13.4424 0.318212 13.608 0.239686 13.791C0.16116 13.9741 0.119874 14.1709 0.118238 14.3701C0.116602 14.5693 0.154648 14.7668 0.230156 14.9511C0.305664 15.1354 0.417122 15.3028 0.558027 15.4436C0.698932 15.5844 0.866462 15.6957 1.05084 15.771C1.23522 15.8463 1.43276 15.8842 1.63192 15.8824C1.83109 15.8805 2.0279 15.8391 2.21087 15.7604C2.39384 15.6817 2.5593 15.5673 2.6976 15.424L7.9996 10.122Z"/>
</svg>
