<svg width="24" height="24" viewBox="0 0 24 24" fill="none" xmlns="http://www.w3.org/2000/svg">
    <path d="M12 2C6.47625 2 2 6.4775 2 12C2 17.5225 6.47625 22 12 22C17.5238 22 22 17.5225 22 12C22 6.4775 17.5238 2 12 2ZM16.6337 14.8663C16.8681 15.1006 16.9998 15.4185 16.9998 15.75C16.9998 16.0815 16.8681 16.3994 16.6337 16.6337C16.3994 16.8681 16.0815 16.9998 15.75 16.9998C15.4185 16.9998 15.1006 16.8681 14.8663 16.6337L12 13.7675L9.13375 16.6337C9.01793 16.7502 8.88023 16.8427 8.72857 16.9057C8.5769 16.9688 8.41426 17.0013 8.25 17.0013C8.08574 17.0013 7.9231 16.9688 7.77143 16.9057C7.61977 16.8427 7.48207 16.7502 7.36625 16.6337C7.25007 16.5178 7.1579 16.38 7.09501 16.2284C7.03212 16.0767 6.99975 15.9142 6.99975 15.75C6.99975 15.5858 7.03212 15.4233 7.09501 15.2716C7.1579 15.12 7.25007 14.9822 7.36625 14.8663L10.2325 12L7.36625 9.13375C7.13187 8.89936 7.00019 8.58147 7.00019 8.25C7.00019 7.91853 7.13187 7.60064 7.36625 7.36625C7.60064 7.13187 7.91853 7.00019 8.25 7.00019C8.58147 7.00019 8.89936 7.13187 9.13375 7.36625L12 10.2325L14.8663 7.36625C15.1006 7.13187 15.4185 7.00019 15.75 7.00019C16.0815 7.00019 16.3994 7.13187 16.6337 7.36625C16.8681 7.60064 16.9998 7.91853 16.9998 8.25C16.9998 8.58147 16.8681 8.89936 16.6337 9.13375L13.7675 12L16.6337 14.8663Z" fill="#EE4392"/>
</svg>
