<svg width="97" height="96" viewBox="0 0 97 96" fill="none" xmlns="http://www.w3.org/2000/svg">
    <path d="M82.9197 14.048C78.4664 9.58492 73.1752 6.04566 67.35 3.6335C61.5248 1.22134 55.2805 -0.0161941 48.9757 -0.00801637C22.4637 -0.00801637 0.97168 21.484 0.97168 47.996C0.97168 61.252 6.34768 73.256 15.0357 81.944C19.489 86.407 24.7802 89.9463 30.6054 92.3585C36.4305 94.7706 42.6748 96.0082 48.9797 96C75.4917 96 96.9837 74.508 96.9837 47.996C96.9837 34.74 91.6077 22.736 82.9197 14.048ZM76.7517 75.756C73.1086 79.4084 68.7796 82.305 64.0136 84.2792C59.2476 86.2535 54.1384 87.2664 48.9797 87.26C27.2877 87.26 9.70368 69.676 9.70368 47.984C9.69722 42.8252 10.7102 37.7161 12.6844 32.9501C14.6587 28.184 17.5552 23.8551 21.2077 20.212C24.8499 16.5595 29.1781 13.6628 33.9435 11.6886C38.7089 9.71433 43.8175 8.70139 48.9757 8.70798C70.6637 8.70798 88.2477 26.292 88.2477 47.98C88.2545 53.1382 87.2416 58.2468 85.2674 63.0123C83.2931 67.7777 80.3964 72.1059 76.7437 75.748L76.7517 75.756Z" fill="#EE4392"/>
    <path d="M55.1482 48L70.5682 32.58C71.3288 31.7509 71.7399 30.66 71.7155 29.5352C71.6911 28.4103 71.2332 27.3383 70.4373 26.5429C69.6415 25.7476 68.5692 25.2904 67.4443 25.2667C66.3194 25.2431 65.2288 25.6548 64.4002 26.416L64.4042 26.412L48.9842 41.832L33.5642 26.412C32.7351 25.6513 31.6443 25.2403 30.5194 25.2647C29.3945 25.2891 28.3225 25.747 27.5272 26.5429C26.7319 27.3387 26.2746 28.411 26.251 29.5359C26.2273 30.6608 26.639 31.7514 27.4002 32.58L27.3962 32.576L42.8162 47.996L27.3962 63.416C26.9624 63.814 26.6135 64.2957 26.3707 64.8321C26.128 65.3685 25.9962 65.9484 25.9834 66.5371C25.9707 67.1257 26.0772 67.7108 26.2965 68.2572C26.5158 68.8037 26.8434 69.3 27.2596 69.7165C27.6758 70.133 28.172 70.4609 28.7182 70.6806C29.2645 70.9002 29.8495 71.0071 30.4382 70.9947C31.0268 70.9823 31.6069 70.851 32.1434 70.6085C32.68 70.3661 33.1619 70.0176 33.5602 69.584L33.5642 69.58L48.9842 54.16L64.4042 69.58C64.8022 70.0138 65.284 70.3626 65.8203 70.6054C66.3567 70.8482 66.9367 70.98 67.5253 70.9927C68.114 71.0055 68.6991 70.899 69.2455 70.6797C69.7919 70.4604 70.2883 70.1328 70.7047 69.7166C71.1212 69.3004 71.4491 68.8042 71.6688 68.258C71.8885 67.7117 71.9953 67.1266 71.983 66.538C71.9706 65.9494 71.8392 65.3693 71.5968 64.8328C71.3543 64.2962 71.0058 63.8143 70.5722 63.416L70.5682 63.412L55.1482 48Z" fill="#EE4392"/>
</svg>
