<svg width="24" height="24" viewBox="0 0 24 24" fill="none" xmlns="http://www.w3.org/2000/svg">
    <path d="M15.0961 5.90395C14.4946 5.29126 13.7776 4.80382 12.9866 4.46978C12.1956 4.13574 11.3463 3.96172 10.4877 3.95778C9.62911 3.95383 8.77823 4.12004 7.98421 4.44679C7.1902 4.77355 6.46879 5.25438 5.86166 5.86152C5.25452 6.46865 4.77369 7.19006 4.44694 7.98407C4.12018 8.77809 3.95398 9.62897 3.95792 10.4876C3.96187 11.3462 4.13588 12.1955 4.46992 12.9865C4.80396 13.7775 5.2914 14.4944 5.90409 15.0959C7.12684 16.2964 8.77418 16.9655 10.4877 16.9576C12.2013 16.9498 13.8424 16.2656 15.054 15.0539C16.2657 13.8422 16.9499 12.2011 16.9578 10.4876C16.9657 8.77404 16.2966 7.1267 15.0961 5.90395ZM4.49009 4.48995C6.02291 2.95751 8.08324 2.06852 10.2498 2.00478C12.4163 1.94103 14.5253 2.70735 16.1456 4.14702C17.7659 5.58669 18.7749 7.59094 18.9665 9.74992C19.158 11.9089 18.5176 14.0595 17.1761 15.7619L22.5211 21.1069L21.1071 22.5209L15.7621 17.1759C14.0591 18.5125 11.9103 19.149 9.75415 18.9555C7.59796 18.7621 5.5968 17.7534 4.15887 16.1351C2.72094 14.5167 1.95459 12.4108 2.01614 10.2468C2.07769 8.08288 2.9625 6.02391 4.49009 4.48995Z" fill="#999999"/>
</svg>
