<svg width="96" height="96" viewBox="0 0 96 96" fill="none" xmlns="http://www.w3.org/2000/svg">
    <path d="M48 8C70.092 8 88 25.908 88 48C88 70.092 70.092 88 48 88C25.908 88 8 70.092 8 48C8 25.908 25.908 8 48 8ZM48 14C38.9826 14 30.3346 17.5821 23.9584 23.9584C17.5821 30.3346 14 38.9826 14 48C14 57.0174 17.5821 65.6654 23.9584 72.0416C30.3346 78.4179 38.9826 82 48 82C57.0174 82 65.6654 78.4179 72.0416 72.0416C78.4179 65.6654 82 57.0174 82 48C82 38.9826 78.4179 30.3346 72.0416 23.9584C65.6654 17.5821 57.0174 14 48 14ZM43 53.76L60.88 35.88C61.416 35.3482 62.1328 35.038 62.8874 35.0114C63.642 34.9849 64.3789 35.2438 64.951 35.7366C65.5231 36.2294 65.8883 36.9199 65.9737 37.6701C66.0592 38.4203 65.8586 39.1752 65.412 39.784L65.12 40.12L45.12 60.12C44.612 60.6281 43.9386 60.937 43.2222 60.9906C42.5058 61.0442 41.7939 60.8389 41.216 60.412L40.88 60.12L30.88 50.12C30.3482 49.584 30.038 48.8672 30.0114 48.1126C29.9849 47.358 30.2438 46.6211 30.7366 46.049C31.2294 45.4769 31.9199 45.1117 32.6701 45.0263C33.4203 44.9408 34.1752 45.1414 34.784 45.588L35.12 45.88L43 53.76Z" fill="#008256"/>
</svg>
