<svg width="24" height="24" viewBox="0 0 24 24" fill="none" xmlns="http://www.w3.org/2000/svg">
    <path fill-rule="evenodd" clip-rule="evenodd" d="M9.5 11.878C9.008 12.272 8.61 12.781 8.348 13.365L8.344 13.375C8.266 13.548 8.201 13.693 8.148 13.804C8.09149 13.9296 8.02424 14.0501 7.947 14.164C7.80466 14.3722 7.62372 14.5511 7.414 14.691C7.20006 14.8249 6.96244 14.9166 6.714 14.961C6.514 15.001 6.272 15.001 6.064 15.001H6C5.46957 15.001 4.96086 15.2118 4.58579 15.5868C4.21071 15.9619 4 16.4706 4 17.001C4 17.5315 4.21071 18.0402 4.58579 18.4153C4.96086 18.7903 5.46957 19.001 6 19.001H18C18.5304 19.001 19.0391 18.7903 19.4142 18.4153C19.7893 18.0402 20 17.5315 20 17.001C20 16.4706 19.7893 15.9619 19.4142 15.5868C19.0391 15.2118 18.5304 15.001 18 15.001H17.936C17.728 15.001 17.486 15.001 17.286 14.961C17.0376 14.9166 16.7999 14.8249 16.586 14.691C16.3762 14.5508 16.1953 14.3715 16.053 14.163C15.9758 14.049 15.9085 13.9286 15.852 13.803C15.7852 13.661 15.7199 13.5184 15.656 13.375L15.652 13.365C15.3914 12.7847 14.9965 12.2747 14.5 11.877V9.54504C15.8221 10.1533 16.8793 11.2197 17.476 12.547C17.5434 12.6984 17.6124 12.8491 17.683 12.999H17.703C17.767 13.001 17.854 13.001 18 13.001C19.0609 13.001 20.0783 13.4225 20.8284 14.1726C21.5786 14.9228 22 15.9402 22 17.001C22 18.0619 21.5786 19.0793 20.8284 19.8295C20.0783 20.5796 19.0609 21.001 18 21.001H6C4.93913 21.001 3.92172 20.5796 3.17157 19.8295C2.42143 19.0793 2 18.0619 2 17.001C2 15.9402 2.42143 14.9228 3.17157 14.1726C3.92172 13.4225 4.93913 13.001 6 13.001C6.146 13.001 6.233 13.001 6.297 12.999H6.317C6.58915 12.2395 7.01115 11.5423 7.55793 10.949C8.10471 10.3556 8.76514 9.87822 9.5 9.54504V11.878Z" fill="#4700C2"/>
    <path d="M12 3.00006L11.293 2.29306L12 1.58606L12.707 2.29306L12 3.00006ZM13 13.0001C13 13.2653 12.8946 13.5196 12.7071 13.7072C12.5195 13.8947 12.2652 14.0001 12 14.0001C11.7348 14.0001 11.4804 13.8947 11.2929 13.7072C11.1053 13.5196 11 13.2653 11 13.0001H13ZM7.29297 6.29306L11.293 2.29306L12.707 3.70706L8.70697 7.70706L7.29297 6.29306ZM12.707 2.29306L16.707 6.29306L15.293 7.70706L11.293 3.70706L12.707 2.29306ZM13 3.00006V13.0001H11V3.00006H13Z" fill="#4700C2"/>
</svg>
