<svg width="96" height="96" viewBox="0 0 96 96" fill="none" xmlns="http://www.w3.org/2000/svg">
    <path d="M48 90C36.8609 90 26.178 85.575 18.3015 77.6985C10.425 69.822 6 59.1391 6 48C6 36.8609 10.425 26.178 18.3015 18.3015C26.178 10.425 36.8609 6 48 6C59.1391 6 69.822 10.425 77.6985 18.3015C85.575 26.178 90 36.8609 90 48C90 59.1391 85.575 69.822 77.6985 77.6985C69.822 85.575 59.1391 90 48 90ZM48 96C60.7304 96 72.9394 90.9429 81.9411 81.9411C90.9429 72.9394 96 60.7304 96 48C96 35.2696 90.9429 23.0606 81.9411 14.0589C72.9394 5.05713 60.7304 0 48 0C35.2696 0 23.0606 5.05713 14.0589 14.0589C5.05713 23.0606 0 35.2696 0 48C0 60.7304 5.05713 72.9394 14.0589 81.9411C23.0606 90.9429 35.2696 96 48 96Z" fill="#EE4392"/>
    <path d="M42.0117 66C42.0117 65.212 42.1669 64.4318 42.4684 63.7039C42.77 62.9759 43.2119 62.3145 43.7691 61.7573C44.3262 61.2002 44.9877 60.7582 45.7156 60.4567C46.4436 60.1552 47.2238 60 48.0117 60C48.7997 60 49.5799 60.1552 50.3078 60.4567C51.0358 60.7582 51.6972 61.2002 52.2544 61.7573C52.8115 62.3145 53.2535 62.9759 53.555 63.7039C53.8565 64.4318 54.0117 65.212 54.0117 66C54.0117 67.5913 53.3796 69.1174 52.2544 70.2426C51.1291 71.3678 49.603 72 48.0117 72C46.4204 72 44.8943 71.3678 43.7691 70.2426C42.6439 69.1174 42.0117 67.5913 42.0117 66ZM42.5997 29.97C42.5198 29.213 42.6 28.4477 42.8349 27.7237C43.0699 26.9998 43.4544 26.3333 43.9636 25.7675C44.4728 25.2017 45.0953 24.7493 45.7906 24.4397C46.4859 24.13 47.2386 23.97 47.9997 23.97C48.7609 23.97 49.5135 24.13 50.2089 24.4397C50.9042 24.7493 51.5266 25.2017 52.0358 25.7675C52.545 26.3333 52.9296 26.9998 53.1645 27.7237C53.3995 28.4477 53.4796 29.213 53.3997 29.97L51.2997 51.012C51.2292 51.8386 50.8509 52.6086 50.2399 53.1698C49.6288 53.7309 48.8294 54.0423 47.9997 54.0423C47.1701 54.0423 46.3707 53.7309 45.7596 53.1698C45.1485 52.6086 44.7703 51.8386 44.6997 51.012L42.5997 29.97Z" fill="#EE4392"/>
</svg>
